# xmcd CD database file
#
# Track frame offsets:
#	150
#	20185
#	41203
#	57171
#
# Disc length: 1028 seconds
#
# Revision: 0
# Processed by: cddbd v1.5.2PL0 Copyright (c) Steve Scherf et al.
# Submitted via: CD2WAV32(JP) R3.22
#
DISCID=34040204
DTITLE=GARNET CROW - Nostalgia
DYEAR=2012
DGENRE=JPop
TTITLE0=Nostalgia
TTITLE1=風の中のオルゴール
TTITLE2=Happy swallow
TTITLE3=Nostalgia -Instrumental-
EXTD=
EXTT0=
EXTT1=
EXTT2=
EXTT3=
PLAYORDER=
